<svg width="51" height="24" viewBox="0 0 51 24" fill="none" xmlns="http://www.w3.org/2000/svg">
<path d="M25.8823 8.21225C25.8538 11.445 27.8868 13.2489 29.4183 14.3216C30.9917 15.422 31.5202 16.1277 31.514 17.1119C31.5023 18.618 30.2589 19.2828 29.0954 19.3086C27.0656 19.3538 25.8853 18.5209 24.947 17.8909L24.2157 22.8089C25.1572 23.4324 26.9003 23.9761 28.7079 24C32.9511 24 35.7271 20.9895 35.7421 16.322C35.7587 10.3982 30.0413 10.0703 30.0804 7.42258C30.0939 6.61972 30.6269 5.76296 31.7948 5.54512C32.373 5.43507 33.9689 5.35086 35.7782 6.54841L36.4884 1.79019C35.5154 1.28096 34.2648 0.793351 32.7077 0.793351C28.714 0.793351 25.905 3.84479 25.8823 8.21225V8.21225ZM43.3122 1.2032C42.5374 1.2032 41.8845 1.85279 41.5931 2.84963L35.532 23.6505H39.772L40.6157 20.299H45.797L46.2864 23.6505H50.0236L46.7624 1.2032H43.3122V1.2032ZM43.9054 7.26706L45.129 15.6963H41.7779L43.9054 7.26706V7.26706ZM20.7415 1.20348L17.3993 23.6502H21.4398L24.7804 1.20292H20.7415V1.20348ZM14.7644 1.20292L10.5589 16.4817L8.85774 3.4908C8.65813 2.04059 7.86985 1.2032 6.99446 1.2032H0.119849L0.0235596 1.85504C1.43489 2.29521 3.0384 3.00515 4.00989 3.76478C4.60442 4.22882 4.77395 4.63446 4.96926 5.73713L8.19133 23.6505H12.4611L19.0072 1.2032H14.7644" fill="url(#paint0_linear_30_2)"/>
<defs>
<linearGradient id="paint0_linear_30_2" x1="23.0106" y1="24.4655" x2="23.9752" y2="0.652101" gradientUnits="userSpaceOnUse">
<stop stop-color="#222357"/>
<stop offset="1" stop-color="#254AA5"/>
</linearGradient>
</defs>
</svg>
